<?xml version="1.0" encoding="utf-8"?>
<!-- Generator: Adobe Illustrator 27.0.0, SVG Export Plug-In . SVG Version: 6.00 Build 0)  -->
<svg version="1.1" id="Слой_1" xmlns="http://www.w3.org/2000/svg" xmlns:xlink="http://www.w3.org/1999/xlink" x="0px" y="0px"
	 viewBox="0 0 1206.8 441.7" style="enable-background:new 0 0 1206.8 441.7;" xml:space="preserve">
<style type="text/css">
	.st0{fill:none;}
	.st1{fill-rule:evenodd;clip-rule:evenodd;fill:url(#SVGID_1_);}
	.st2{fill-rule:evenodd;clip-rule:evenodd;fill:url(#SVGID_00000005980118767166733160000011182333170300571059_);}
	.st3{fill-rule:evenodd;clip-rule:evenodd;fill:url(#SVGID_00000070077593181456599190000009252837850189825419_);}
	.st4{fill-rule:evenodd;clip-rule:evenodd;fill:#111526;}
	.st5{fill-rule:evenodd;clip-rule:evenodd;fill:url(#SVGID_00000112594878843476703270000014321036446768560540_);}
	.st6{fill-rule:evenodd;clip-rule:evenodd;fill:url(#SVGID_00000062175338543536164060000000833707611211637939_);}
	.st7{fill:#111526;}
	.st8{fill:url(#SVGID_00000165235653227752624550000007055316179160826035_);}
</style>
<g id="Слой_x0020_1">
	<path class="st0" d="M40,231.5c-0.1-0.5-0.3-1.1-0.4-1.6"/>
	<path class="st0" d="M40.8,234.7c-0.1-0.5-0.3-1.1-0.4-1.6"/>
	<path class="st0" d="M308,202.3c0,0.3,0,0.7,0,1"/>
	
		<linearGradient id="SVGID_1_" gradientUnits="userSpaceOnUse" x1="-121206.0234" y1="-1261916.25" x2="91009.0547" y2="1262502.5" gradientTransform="matrix(1.000000e-05 0 0 -1.000000e-05 -354.5722 -315.3115)">
		<stop  offset="0" style="stop-color:#0068AD"/>
		<stop  offset="1" style="stop-color:#26ACDA"/>
	</linearGradient>
	<path class="st1" d="M15.6,344.4c103.3,16,208.8,16.4,316.7,0c-5.1-8.4-9.3-18-12.1-27.5c-8.9-29.9-10.4-62.1-10.4-93.2
		c0-10.5-0.6-21.1-1.9-31.7c-0.4-8.2-1.6-16.4-3.5-24.4c4.2,30.2-2.7,62-21.9,88.7c-39.7,55.2-116.6,67.9-171.8,28.2
		c-55.2-39.7-67.9-116.6-28.2-171.8c19.2-26.7,47.1-43.5,77.1-49.2c-37.8,3.5-74,22.8-97.9,56.1C11.6,189.5,58.9,273.4,15.6,344.4
		L15.6,344.4z"/>
	<path class="st0" d="M261.8,99.1c-3.8-2.9-7.5-5.5-11.2-7.8l0.3,0.2l0,0l0.3,0.2l0,0l0.3,0.2l0,0l0.3,0.2l0,0l0.3,0.2l0,0l0.3,0.2
		l0,0l0.3,0.2l0,0l0.3,0.2l0.1,0l0.3,0.2l0.1,0.1l0.2,0.2l0.1,0.1l0.2,0.2l0.1,0.1l0.2,0.2l0.1,0.1l0.2,0.2l0.1,0.1l0.2,0.2l0.1,0.1
		l0.2,0.2l0.1,0.1l0.2,0.1l0.1,0.1l0.2,0.1l0.1,0.1l0.2,0.1l0.2,0.1l0.1,0.1l0.2,0.1l0.1,0.1l0.2,0.1l0.1,0.1l0.6,0.5l0,0l0.2,0.2
		l0.1,0.1l0.2,0.2l0.1,0.1l0.2,0.2l0.1,0.1l0.6,0.5l0.3,0.2l0,0l0.3,0.2l0,0l0.3,0.2l0,0l0.3,0.3l0,0l0.3,0.3l0,0l0.3,0.3l0,0
		l0.3,0.3l0,0l0.3,0.3l0,0l0.3,0.2l0,0l0.3,0.2l0,0l0.2,0.2l0.1,0.1l0.2,0.2l0.1,0.1l0.2,0.2l0.1,0.1l0.2,0.2l0.1,0.1l0.2,0.2
		l0.1,0.1l0.2,0.2l0.1,0.1l0.2,0.2l0.1,0.1l0.2,0.2l0.1,0.1l0.2,0.2l0.1,0.1l0.1,0.1l0.3,0.3l0.1,0.1l0.1,0.1l0.2,0.2l0.1,0.1
		l0.2,0.2l0.1,0.1l0.2,0.2l0.1,0.1l0.2,0.2l0.1,0.1l0.2,0.2l0.3,0.3l0,0l0.1,0.1l0.2,0.2l0.1,0.1l0.2,0.2l0.1,0.1l0.2,0.2l0,0
		l0.2,0.2l0,0l0.2,0.3l0,0l0.2,0.3l0,0l0.3,0.3l0,0l0.3,0.3c-4.8,6.6-9.7,13.2-14.5,19.8c-5.5-6.4-11.9-12.3-19.1-17.5
		c-46.3-33.2-109.4-24.6-140.8,19.2c-15.2,21.2-20.3,46.8-16.2,71.3c-8-30.1-3.3-62.6,15.7-89.1c0.5-0.7,1.1-1.4,1.6-2.2l0.1-0.2
		c0.5-0.7,1.1-1.4,1.6-2.1l0.1-0.1c0.5-0.7,1.1-1.3,1.6-1.9l0.1-0.2c0.6-0.6,1.1-1.3,1.7-1.9l0.2-0.2c0.6-0.6,1.1-1.2,1.7-1.8
		l0.2-0.2c0.5-0.6,1.1-1.2,1.7-1.7l0.2-0.2c0.6-0.6,1.1-1.1,1.7-1.7l0.3-0.3c0.5-0.5,1.1-1,1.6-1.5l0.3-0.3c0.6-0.5,1.1-1,1.7-1.5
		l0.4-0.4c0.5-0.5,1.1-0.9,1.6-1.4l0.5-0.4c0.5-0.4,1-0.8,1.5-1.2l0.6-0.4c0.5-0.4,1-0.8,1.6-1.2l0.7-0.5c0.5-0.3,0.9-0.7,1.4-1
		c0.3-0.2,0.5-0.4,0.8-0.6c0.5-0.3,0.9-0.6,1.4-0.9l0.8-0.5c0.4-0.3,0.9-0.6,1.3-0.8c0.4-0.2,0.7-0.5,1.1-0.7
		c0.4-0.2,0.8-0.5,1.2-0.7c0.4-0.2,0.8-0.5,1.2-0.7l0.9-0.5c0.4-0.2,0.9-0.5,1.3-0.7c0.3-0.2,0.7-0.4,1-0.6c0.5-0.3,1-0.5,1.5-0.8
		l0.6-0.3c0.7-0.4,1.4-0.7,2.1-1l0.3-0.1c0.6-0.3,1.2-0.5,1.7-0.8l0.1-0.1c0.9-0.4,1.7-0.8,2.6-1.1l0.2-0.1c2.5-1,5-1.9,7.5-2.7"/>
	
		<linearGradient id="SVGID_00000004519180304078972680000016076872504040314265_" gradientUnits="userSpaceOnUse" x1="-26119.7168" y1="-8434.7266" x2="17408.4023" y2="14111.0068" gradientTransform="matrix(1.000000e-05 0 0 -1.000000e-05 -354.5722 -315.3115)">
		<stop  offset="0" style="stop-color:#0081C7"/>
		<stop  offset="1" style="stop-color:#00B7CF"/>
	</linearGradient>
	<path style="fill-rule:evenodd;clip-rule:evenodd;fill:url(#SVGID_00000004519180304078972680000016076872504040314265_);" d="
		M258.2,137.3c-1,1.4-1.8,2.4-2.1,2.8c-1.4,1.9-2.7,3.8-4.1,5.6c1.3-1.9,2.7-3.7,4.1-5.6C256.4,139.7,257.1,138.7,258.2,137.3z"/>
	
		<linearGradient id="SVGID_00000160158861424579982270000000955215214854385027_" gradientUnits="userSpaceOnUse" x1="-15877.0547" y1="-12127.8555" x2="-15553.8457" y2="11794.2803" gradientTransform="matrix(1.000000e-05 0 0 -1.000000e-05 -354.5722 -315.3115)">
		<stop  offset="0" style="stop-color:#454545"/>
		<stop  offset="1" style="stop-color:#828282"/>
	</linearGradient>
	
		<polygon style="fill-rule:evenodd;clip-rule:evenodd;fill:url(#SVGID_00000160158861424579982270000000955215214854385027_);" points="
		106.4,264.1 106.3,264.2 103.4,268.3 	"/>
	<path class="st4" d="M143.3,294.3c11-20.6,21.9-42,32.8-62.4l34.6-65.1c2.1-3.9,10.8-19.4,11.5-22.3l-36.9,5.2l-69.4,130.3
		c4.2,2.9,8.6,5.7,13.2,8.1C133.7,290.5,138.5,292.6,143.3,294.3L143.3,294.3z"/>
	<path class="st4" d="M102.1,268.4c1.3-2.4,2.6-4.9,4-7.4c4.6-8.3,32.7-60.5,46.4-87.2l-37.7,5.3l-33.2,62.3
		C87,251.3,93.9,260.4,102.1,268.4z"/>
	<path class="st4" d="M214.4,286.3c30.5-6.4,57.5-25.1,72.6-53.9c15.5-29.6,15.2-63.5,2.1-92.8c-4.4,8.1-8.8,16.2-13.1,24.3
		c8.6,24.5,7.6,51.8-5.1,76C258.7,263,238.1,279,214.4,286.3L214.4,286.3z M257.9,98.4c-6.5-5.5-13.8-10.4-21.7-14.5
		c-55.7-29.3-123.4-10.2-151.1,42.6C70,155.2,69.9,188.1,82,216.8c-7.5-23.7-6-49.8,6.1-72.9c25.1-47.8,86.3-65.1,136.8-38.6
		c7.9,4.1,15,9.1,21.3,14.7C250.1,112.8,254.1,105.6,257.9,98.4L257.9,98.4z"/>
	
		<linearGradient id="SVGID_00000139261162610639740240000007337021563579032740_" gradientUnits="userSpaceOnUse" x1="188481.7031" y1="-622018.5625" x2="-223983.9375" y2="615640.75" gradientTransform="matrix(1.000000e-05 0 0 -1.000000e-05 -354.5722 -315.3115)">
		<stop  offset="0" style="stop-color:#0068AD"/>
		<stop  offset="1" style="stop-color:#26ACDA"/>
	</linearGradient>
	<path style="fill-rule:evenodd;clip-rule:evenodd;fill:url(#SVGID_00000139261162610639740240000007337021563579032740_);" d="
		M267.7,62.6c1.6,1.8,10.2,5.5,13.8,8c-0.5,2.3-30,56.9-32.2,61.3c-11.6,22.2-22.2,40.9-32.6,61.2l-44.1,83.2l-9.4,17.6l0,0
		l-2.8,5.3c11.2,2.2,22.6,2.7,33.7,1.5l3.3-6.2l0.1,0l5.7-10.8c1.7-3.2,7.8-14,10.4-19.5l50.2-94.3c9.2-18.1,20.9-38.6,30.2-56.5
		c2.7-5.2,4.9-9,7.5-13.9c2.2-4.1,5.7-10.3,7.5-14.3c1.9,0.6,0-0.2,2,0.7l8.5,4.5c0.8,0.4,0.7,0.4,1.5,0.8c0.2,0.1,0.7,0.3,0.9,0.4
		c1.1,0.5,0,0.1,1.6,0.6l-2.1-63.3C318.1,30.1,269,61,267.7,62.6L267.7,62.6z"/>
	
		<linearGradient id="SVGID_00000075128320758766307940000012392859399259918522_" gradientUnits="userSpaceOnUse" x1="24453.1016" y1="-224198.1406" x2="-58896.1758" y2="220294.2344" gradientTransform="matrix(1.000000e-05 0 0 -1.000000e-05 -354.5722 -315.3115)">
		<stop  offset="0" style="stop-color:#0068AD"/>
		<stop  offset="1" style="stop-color:#26ACDA"/>
	</linearGradient>
	<path style="fill-rule:evenodd;clip-rule:evenodd;fill:url(#SVGID_00000075128320758766307940000012392859399259918522_);" d="
		M152.4,379.6l5.6-10.8c-17.7-0.3-41.1-6.4-51.7,9c-3,4.4-4.8,9.7-4.8,15.4c0,15.1,12.2,27.3,27.3,27.3c15.1,0,27.3-12.2,27.3-27.3
		C156.1,388.3,154.7,383.6,152.4,379.6L152.4,379.6z"/>
	<path class="st7" d="M400.4,311.8h59.3l-8.6,32.3h-59.3c-16.5,0-28.8-6.3-37-18.8c-5.2-7.9-7.9-16.8-7.9-26.8
		c0-5.7,0.9-11.7,2.6-18c4.7-17.4,14.4-32.3,29.2-44.8c14.9-12.5,30.6-18.8,47.1-18.8h60.1l-19.4,32.3h-49.3c-7,0-13.9,3-20.8,9.1
		c-6.8,6-11.4,13.4-13.8,22.3c-0.9,3.5-1.4,6.7-1.4,9.8c0,4.7,1.1,8.8,3.3,12.4C388.1,308.8,393.4,311.8,400.4,311.8L400.4,311.8z
		 M554.2,269.1c1.7,0,3.7-0.9,5.6-2.8c2-1.9,3.4-4.3,4.1-7.2c0.4-1.3,0.6-2.6,0.6-3.7c0-1.3-0.3-2.4-0.7-3.5c-1-1.8-2.4-2.8-4.2-2.8
		h-40.3l-5.4,19.9L554.2,269.1L554.2,269.1z M508.7,288.4l-14.9,55.7h-33.2l34.1-127.2h73.5c11.3,0,19.7,4.1,25.3,12.4
		c3.6,5.4,5.4,11.4,5.4,18c0,3.7-0.6,7.7-1.7,11.8c-3.1,11.6-9.6,21.5-19.5,29.6c-7.6,6.3-14.5,10-20.6,11.2l19,44.2h-43.4
		L508.7,288.4z M632.3,287.6l-15.1,56.5H584L618,216.9h46.9l5.5,70.1l43.1-70.1h46.9l-34,127.2h-33.2l15.1-56.5l-34.6,56.5h-36.8
		L632.3,287.6L632.3,287.6z"/>
	
		<linearGradient id="SVGID_00000132077076938440960750000012658409688980796295_" gradientUnits="userSpaceOnUse" x1="3865.7593" y1="-1799400" x2="-35716.6523" y2="1799927.75" gradientTransform="matrix(1.000000e-05 0 0 -1.000000e-05 -354.5722 -315.3115)">
		<stop  offset="0" style="stop-color:#0068AD"/>
		<stop  offset="1" style="stop-color:#24A9D8"/>
	</linearGradient>
	<path style="fill:url(#SVGID_00000132077076938440960750000012658409688980796295_);" d="M784.7,285.7l-7,26.2H818
		c1.8,0,3.7-0.7,5.5-2.2c1.8-1.5,3-3.3,3.6-5.4c0.2-0.7,0.3-1.5,0.3-2.2c0-1.2-0.3-2.3-0.9-3.2c-1.1-1.5-2.5-2.2-4.4-2.2h-34.8
		L784.7,285.7L784.7,285.7z M794.5,249.2l-4.1,15.2h40.3c1.8,0,3.7-0.7,5.5-2.2c1.8-1.5,3-3.2,3.6-5.4c0.2-0.7,0.3-1.5,0.3-2.2
		c0-1.2-0.3-2.3-0.9-3.2c-1.1-1.5-2.6-2.2-4.4-2.2H794.5L794.5,249.2z M843.4,216.9c11.3,0,19.8,3.9,25.5,11.7
		c3.8,5.2,5.6,11,5.6,17.6c0,3.4-0.5,6.9-1.5,10.6c-2.5,9.4-7.2,17.3-14.1,23.7c2,3.7,3,7.9,3,12.6c0,3.4-0.6,7.1-1.6,11.1
		c-2.9,10.9-9.3,20.3-19.2,28.2c-9.9,7.8-20.5,11.7-31.7,11.7h-73.6l34.1-127.2L843.4,216.9L843.4,216.9z M994.1,216.9l-24.7,32.3
		h-84.7l8.6-32.3H994.1L994.1,216.9z M880.6,264.4h85.5l-8.6,32.3h-85.5L880.6,264.4z M867.9,311.8h99.6l-8.6,32.3h-99.5
		L867.9,311.8L867.9,311.8z M1010.2,311.8h66.4l-8.6,32.3h-99.5l5.5-20.9l28.5-106.3h33.2L1010.2,311.8z M1119.3,311.8h66.4
		l-8.6,32.3h-99.5l5.5-20.9l28.5-106.3h33.2L1119.3,311.8z"/>
</g>
</svg>
